<svg width="38" height="31" viewBox="0 0 38 31" fill="none" xmlns="http://www.w3.org/2000/svg">
<path d="M33.9286 0H4.07143C1.82366 0 0 1.48772 0 3.32143V27.6786C0 29.5123 1.82366 31 4.07143 31H33.9286C36.1763 31 38 29.5123 38 27.6786V3.32143C38 1.48772 36.1763 0 33.9286 0ZM13.5714 23.25C13.5714 23.8617 12.9641 24.3571 12.2143 24.3571H9.5C8.75018 24.3571 8.14286 23.8617 8.14286 23.25V14.3929C8.14286 13.7812 8.75018 13.2857 9.5 13.2857H12.2143C12.9641 13.2857 13.5714 13.7812 13.5714 14.3929V23.25ZM21.7143 23.25C21.7143 23.8617 21.107 24.3571 20.3571 24.3571H17.6429C16.893 24.3571 16.2857 23.8617 16.2857 23.25V7.75C16.2857 7.1383 16.893 6.64286 17.6429 6.64286H20.3571C21.107 6.64286 21.7143 7.1383 21.7143 7.75V23.25ZM29.8571 23.25C29.8571 23.8617 29.2498 24.3571 28.5 24.3571H25.7857C25.0359 24.3571 24.4286 23.8617 24.4286 23.25V18.8214C24.4286 18.2097 25.0359 17.7143 25.7857 17.7143H28.5C29.2498 17.7143 29.8571 18.2097 29.8571 18.8214V23.25Z" fill="#9592A6"/>
</svg>
