<svg width="26" height="32" viewBox="0 0 26 32" fill="none" xmlns="http://www.w3.org/2000/svg">
<path d="M12.6332 16C16.5557 16 19.7348 12.4187 19.7348 8C19.7348 3.58125 16.5557 0 12.6332 0C8.71072 0 5.53167 3.58125 5.53167 8C5.53167 12.4187 8.71072 16 12.6332 16ZM17.9483 18.0375L15.2963 30L13.5209 21.5L15.2963 18H9.97014L11.7455 21.5L9.97014 30L7.31815 18.0375C3.36237 18.25 0.205505 21.8937 0.205505 26.4V29C0.205505 30.6562 1.39834 32 2.86859 32H22.3979C23.8681 32 25.0609 30.6562 25.0609 29V26.4C25.0609 21.8937 21.9041 18.25 17.9483 18.0375Z" fill="#9592A6"/>
</svg>
