<svg width="26" height="28" viewBox="0 0 26 28" fill="none" xmlns="http://www.w3.org/2000/svg">
<path d="M2.4375 0C1.95541 0 1.48414 0.189481 1.0833 0.544483C0.682454 0.899484 0.370033 1.40406 0.185545 1.99441C0.00105613 2.58475 -0.0472145 3.23435 0.046837 3.86106C0.140888 4.48777 0.373038 5.06344 0.713928 5.51527C1.05482 5.9671 1.48914 6.2748 1.96197 6.39946C2.4348 6.52412 2.9249 6.46014 3.37029 6.21561C3.81569 5.97108 4.19637 5.55699 4.46421 5.02569C4.73204 4.49439 4.875 3.86975 4.875 3.23077C4.875 2.37392 4.61819 1.55216 4.16107 0.94627C3.70395 0.340384 3.08397 0 2.4375 0ZM2.4375 10.7692C1.95541 10.7692 1.48414 10.9587 1.0833 11.3137C0.682454 11.6687 0.370033 12.1733 0.185545 12.7636C0.00105613 13.354 -0.0472145 14.0036 0.046837 14.6303C0.140888 15.257 0.373038 15.8327 0.713928 16.2845C1.05482 16.7363 1.48914 17.044 1.96197 17.1687C2.4348 17.2934 2.9249 17.2294 3.37029 16.9848C3.81569 16.7403 4.19637 16.3262 4.46421 15.7949C4.73204 15.2636 4.875 14.639 4.875 14C4.875 13.1431 4.61819 12.3214 4.16107 11.7155C3.70395 11.1096 3.08397 10.7692 2.4375 10.7692ZM2.4375 21.5385C1.95541 21.5385 1.48414 21.7279 1.0833 22.0829C0.682454 22.4379 0.370033 22.9425 0.185545 23.5329C0.00105613 24.1232 -0.0472145 24.7728 0.046837 25.3995C0.140888 26.0262 0.373038 26.6019 0.713928 27.0537C1.05482 27.5056 1.48914 27.8133 1.96197 27.9379C2.4348 28.0626 2.9249 27.9986 3.37029 27.7541C3.81569 27.5095 4.19637 27.0954 4.46421 26.5641C4.73204 26.0329 4.875 25.4082 4.875 24.7692C4.875 23.9124 4.61819 23.0906 4.16107 22.4847C3.70395 21.8788 3.08397 21.5385 2.4375 21.5385ZM25.1875 22.6154H8.9375C8.72201 22.6154 8.51535 22.7288 8.36298 22.9308C8.2106 23.1328 8.125 23.4067 8.125 23.6923V25.8462C8.125 26.1318 8.2106 26.4057 8.36298 26.6077C8.51535 26.8096 8.72201 26.9231 8.9375 26.9231H25.1875C25.403 26.9231 25.6097 26.8096 25.762 26.6077C25.9144 26.4057 26 26.1318 26 25.8462V23.6923C26 23.4067 25.9144 23.1328 25.762 22.9308C25.6097 22.7288 25.403 22.6154 25.1875 22.6154ZM25.1875 1.07692H8.9375C8.72201 1.07692 8.51535 1.19038 8.36298 1.39235C8.2106 1.59431 8.125 1.86823 8.125 2.15385V4.30769C8.125 4.59331 8.2106 4.86723 8.36298 5.06919C8.51535 5.27115 8.72201 5.38461 8.9375 5.38461H25.1875C25.403 5.38461 25.6097 5.27115 25.762 5.06919C25.9144 4.86723 26 4.59331 26 4.30769V2.15385C26 1.86823 25.9144 1.59431 25.762 1.39235C25.6097 1.19038 25.403 1.07692 25.1875 1.07692ZM25.1875 11.8462H8.9375C8.72201 11.8462 8.51535 11.9596 8.36298 12.1616C8.2106 12.3635 8.125 12.6375 8.125 12.9231V15.0769C8.125 15.3625 8.2106 15.6365 8.36298 15.8384C8.51535 16.0404 8.72201 16.1538 8.9375 16.1538H25.1875C25.403 16.1538 25.6097 16.0404 25.762 15.8384C25.9144 15.6365 26 15.3625 26 15.0769V12.9231C26 12.6375 25.9144 12.3635 25.762 12.1616C25.6097 11.9596 25.403 11.8462 25.1875 11.8462Z" fill="#9592A6"/>
</svg>
