<svg width="22" height="18" viewBox="0 0 22 18" fill="none" xmlns="http://www.w3.org/2000/svg">
<path fill-rule="evenodd" clip-rule="evenodd" d="M0.897096 6.87785L21.2096 6.87785C21.4168 6.87785 21.6155 6.96677 21.762 7.12505C21.9085 7.28333 21.9908 7.49801 21.9908 7.72185V9.40985C21.9908 9.63369 21.9085 9.84837 21.762 10.0066C21.6155 10.1649 21.4168 10.2539 21.2096 10.2539L0.897096 10.2539C0.689895 10.2539 0.491182 10.1649 0.344669 10.0066C0.198156 9.84837 0.115846 9.63369 0.115846 9.40985V7.72185C0.115846 7.49801 0.198156 7.28333 0.344669 7.12505C0.491182 6.96677 0.689895 6.87785 0.897096 6.87785ZM13.5519 17.0059L0.742311 17.0059C0.660024 17.0059 0.578531 16.9885 0.502496 16.9545C0.426462 16.9205 0.357375 16.8706 0.29919 16.8078C0.241004 16.7449 0.194862 16.6703 0.163402 16.5882C0.131942 16.506 0.115781 16.418 0.115846 16.3291V14.3066C0.115781 14.2177 0.131942 14.1297 0.163402 14.0476C0.194862 13.9654 0.241004 13.8908 0.29919 13.8279C0.357375 13.7651 0.426462 13.7152 0.502496 13.6812C0.578531 13.6472 0.660024 13.6298 0.742311 13.6299L13.5519 13.6299C13.6342 13.6298 13.7157 13.6472 13.7917 13.6812C13.8677 13.7152 13.9368 13.7651 13.995 13.8279C14.0532 13.8908 14.0993 13.9654 14.1308 14.0476C14.1622 14.1297 14.1784 14.2177 14.1783 14.3066V16.3291C14.1784 16.418 14.1622 16.506 14.1308 16.5882C14.0993 16.6703 14.0532 16.7449 13.995 16.8078C13.9368 16.8706 13.8677 16.9205 13.7917 16.9545C13.7157 16.9885 13.6342 17.0059 13.5519 17.0059ZM13.5519 3.50184L0.742311 3.50184C0.660024 3.50191 0.578531 3.48445 0.502496 3.45047C0.426462 3.41648 0.357375 3.36663 0.29919 3.30377C0.241004 3.24091 0.194862 3.16628 0.163402 3.08414C0.131942 3.00199 0.115781 2.91396 0.115846 2.82506V0.802623C0.115781 0.713727 0.131942 0.62569 0.163402 0.543548C0.194862 0.461404 0.241004 0.386769 0.29919 0.323911C0.357375 0.261052 0.426462 0.211202 0.502496 0.177215C0.578531 0.14323 0.660024 0.12577 0.742311 0.12584L13.5519 0.12584C13.6342 0.12577 13.7157 0.14323 13.7917 0.177215C13.8677 0.211202 13.9368 0.261052 13.995 0.323911C14.0532 0.386769 14.0993 0.461404 14.1308 0.543548C14.1622 0.62569 14.1784 0.713727 14.1783 0.802623L14.1783 2.82506C14.1784 2.91396 14.1622 3.00199 14.1308 3.08414C14.0993 3.16628 14.0532 3.24091 13.995 3.30377C13.9368 3.36663 13.8677 3.41648 13.7917 3.45047C13.7157 3.48445 13.6342 3.50191 13.5519 3.50184Z" fill="#9592A6"/>
</svg>
