<svg width="26" height="32" viewBox="0 0 26 32" fill="none" xmlns="http://www.w3.org/2000/svg">
<path d="M17.944 20.0381L12.6512 26.0003L7.35829 20.0381C3.39141 20.2318 0.22345 23.8879 0.22345 28.4002V29.0001C0.22345 30.6563 1.41629 32 2.88653 32H22.4158C23.886 32 25.0789 30.6563 25.0789 29.0001V28.4002C25.0789 23.8879 21.9109 20.2318 17.944 20.0381ZM0.97799 4.98882L1.33307 5.08256V8.73238C0.944701 8.99487 0.667297 9.4511 0.667297 10.0011C0.667297 10.526 0.922509 10.9635 1.28313 11.2323L0.417633 15.1258C0.323315 15.5571 0.534143 16.0008 0.839288 16.0008H3.15839C3.46353 16.0008 3.67436 15.5571 3.58004 15.1258L2.71454 11.2323C3.07517 10.9635 3.33038 10.526 3.33038 10.0011C3.33038 9.4511 3.05297 8.99487 2.66461 8.73238V5.44505L6.32635 6.43875C5.84921 7.5137 5.54961 8.71364 5.54961 10.0011C5.54961 14.4196 8.72867 18.0007 12.6512 18.0007C16.5737 18.0007 19.7527 14.4196 19.7527 10.0011C19.7527 8.71364 19.4587 7.5137 18.976 6.43875L24.3188 4.98882C25.3286 4.71383 25.3286 3.29515 24.3188 3.02016L13.7552 0.145305C13.034 -0.0484351 12.2739 -0.0484351 11.5526 0.145305L0.97799 3.01392C-0.0262143 3.2889 -0.0262143 4.71383 0.97799 4.98882Z" fill="#9592A6"/>
</svg>
