<svg width="9" height="12" viewBox="0 0 9 12" fill="none" xmlns="http://www.w3.org/2000/svg">
<path d="M2.27627 8.49916C2.0726 8.29549 2.17877 8.35291 1.68753 8.22143C1.46464 8.16167 1.26871 8.04683 1.09152 7.90925L0.028171 10.5164C-0.0747185 10.7688 0.117467 11.043 0.389808 11.0327L1.62472 10.9856L2.47408 11.8828C2.66158 12.0806 2.99064 12.0189 3.09353 11.7665L4.31344 8.77548C4.05938 8.91704 3.77743 9.00001 3.48587 9.00001C3.02884 9.00001 2.59947 8.82212 2.27627 8.49916ZM8.97183 10.5164L7.90848 7.90925C7.7313 8.04706 7.53536 8.16167 7.31247 8.22143C6.81865 8.35362 6.92693 8.29596 6.72373 8.49916C6.40053 8.82212 5.97092 9.00001 5.5139 9.00001C5.22234 9.00001 4.94039 8.91681 4.68633 8.77548L5.90624 11.7665C6.00913 12.0189 6.33842 12.0806 6.52568 11.8828L7.37528 10.9856L8.61019 11.0327C8.88253 11.043 9.07472 10.7686 8.97183 10.5164ZM6.16405 7.96878C6.52217 7.60433 6.56318 7.63574 7.07318 7.49676C7.39872 7.40793 7.65325 7.14895 7.74044 6.81755C7.91575 6.15194 7.87028 6.23233 8.34863 5.74531C8.58699 5.50274 8.68004 5.14907 8.59285 4.81767C8.41777 4.15253 8.41754 4.24534 8.59285 3.57949C8.68004 3.24809 8.58699 2.89443 8.34863 2.65185C7.87028 2.16483 7.91575 2.24499 7.74044 1.57961C7.65325 1.24821 7.39872 0.989232 7.07318 0.900405C6.41975 0.72205 6.4985 0.768689 6.01967 0.281433C5.78132 0.0388601 5.43374 -0.0560599 5.1082 0.0327665C4.455 0.210888 4.54617 0.211122 3.8918 0.0327665C3.56626 -0.0560599 3.21869 0.0386257 2.98033 0.281433C2.50197 0.768455 2.58072 0.72205 1.92706 0.900405C1.60151 0.989232 1.34699 1.24821 1.2598 1.57961C1.08472 2.24499 1.12996 2.16483 0.651602 2.65185C0.413245 2.89443 0.319965 3.24809 0.407386 3.57949C0.582462 4.24417 0.582697 4.15136 0.407386 4.81744C0.320199 5.14884 0.413245 5.5025 0.651602 5.74531C1.12996 6.23233 1.08449 6.15194 1.2598 6.81755C1.34699 7.14895 1.60151 7.40793 1.92706 7.49676C2.45158 7.63972 2.49072 7.61723 2.83595 7.96878C3.14603 8.28448 3.62907 8.34096 4.00172 8.10518C4.15074 8.01058 4.32361 7.96034 4.50012 7.96034C4.67663 7.96034 4.84949 8.01058 4.99851 8.10518C5.37093 8.34096 5.85397 8.28448 6.16405 7.96878ZM2.28893 4.12417C2.28893 2.8813 3.27892 1.87375 4.5 1.87375C5.72108 1.87375 6.71107 2.8813 6.71107 4.12417C6.71107 5.36704 5.72108 6.37459 4.5 6.37459C3.27892 6.37459 2.28893 5.36704 2.28893 4.12417Z" fill="#CBCBCB"/>
</svg>
