<svg width="9" height="10" viewBox="0 0 9 10" fill="none" xmlns="http://www.w3.org/2000/svg">
<path d="M4.5 5C5.92031 5 7.07143 3.88086 7.07143 2.5C7.07143 1.11914 5.92031 0 4.5 0C3.07969 0 1.92857 1.11914 1.92857 2.5C1.92857 3.88086 3.07969 5 4.5 5ZM6.3 5.625H5.96451C5.51853 5.82422 5.02232 5.9375 4.5 5.9375C3.97768 5.9375 3.48348 5.82422 3.03549 5.625H2.7C1.20937 5.625 0 6.80078 0 8.25V9.0625C0 9.58008 0.43192 10 0.964286 10H8.03571C8.56808 10 9 9.58008 9 9.0625V8.25C9 6.80078 7.79063 5.625 6.3 5.625Z" fill="#0A043C" fill-opacity="0.5"/>
</svg>
